<svg xmlns="http://www.w3.org/2000/svg" viewBox="0 0 507.27994 190.20001" role="img" aria-label="EOS">
  <path fill="#ea0029" d="M448.85,76.35H387.71c.27.27,7.06,14.94,38.04,29.07l19.56,8.97c12.23,5.71,23.37,9.78,23.37,22.28,0,16.3-15.49,20.38-25.81,20.38-17.12,0-32.06-8.97-44.83-26.36l-25.81,19.02v.27c14.67,25.27,39.4,40.21,70.38,40.21,39.94,0,64.67-23.64,64.67-54.62,0-22.28-11.68-36.14-36.41-48.37Zm19.83-17.93c16.57,0,29.35-12.77,29.35-29.07A28.89457,28.89457,0,0,0,468.68,0c-16.3,0-29.07,12.77-29.07,29.35A28.76187,28.76187,0,0,0,468.68,58.42ZM71.95,46.3C31.39,46.3,0,77.69,0,118.25S31.67,190.2,75.28,190.2c21.11,0,39.45-7.5,55-20.56l-15.55-25.56c-11.12,8.61-23.33,13.89-38.34,13.89-20,0-34.17-9.72-38.61-27.22h96.4a96.39585,96.39585,0,0,0,2.5-20.56C136.68,74.63,110.56,46.3,71.95,46.3ZM37.78,104.36c4.17-17.22,16.95-27.78,32.78-27.78s29.45,10.28,29.72,27.78ZM259.89,0c-53.94,0-97.33,41.15-97.33,95.1s43.38,95.1,97.33,95.1,97.88-41.15,97.88-95.1C357.77,41.15,313.83,0,259.89,0Zm.28,155.44c-34.2,0-58.95-24.75-58.95-60.34,0-35.32,24.75-60.34,58.95-60.34,33.65,0,58.95,25.03,58.95,60.34C319.12,130.69,293.81,155.44,260.17,155.44Z" />
</svg>
