<svg xmlns="http://www.w3.org/2000/svg" viewBox="0 0 64 64" role="img" aria-labelledby="title">
  <title>TS Favicon</title>
  <rect width="64" height="64" rx="14" fill="#24201d" />
  <path d="M17 20h30v8H36v24h-8V28H17z" fill="#fff7ed" />
  <path d="M18 42h8c0 2 1.6 3 4.1 3 2.7 0 4.4-.9 4.4-2.6 0-1.5-1.2-2.2-4.7-3.1-6.9-1.8-10.7-4.2-10.7-10 0-6.1 5-10 12.4-10 7.3 0 12.1 3.8 12.5 10h-8c-.2-1.9-1.7-2.9-4.1-2.9-2.3 0-3.8.9-3.8 2.4 0 1.5 1.3 2.1 4.9 3 6.5 1.6 10.5 4 10.5 10 0 6.5-5.2 10.4-13 10.4-7.6 0-12.3-3.8-12.5-9.2z" fill="#f0bf75" />
</svg>
